<?xml version="1.0" standalone="no"?>
<!DOCTYPE svg PUBLIC "-//W3C//DTD SVG 1.1//EN" "http://www.w3.org/Graphics/SVG/1.1/DTD/svg11.dtd" >
<svg xmlns="http://www.w3.org/2000/svg">
<metadata>Generated by IcoMoon</metadata>
<defs>
<font id="coinport" horiz-adv-x="512">
<font-face units-per-em="512" ascent="480" descent="-32" />
<missing-glyph horiz-adv-x="512" />
<glyph unicode="&#x20;" d="" horiz-adv-x="256" />
<glyph unicode="&#xe600;" d="M325.2 267.2c-2.4 24.4-23.6 32.8-50.4 34.8v34h-20.8v-33.2c-5.6 0-11.2 0-16.4-0.4v33.2h-20.8v-34c-4.4 0-8.8 0-13.2 0v0h-28.8v-22c0 0 15.2 0.4 15.2 0 8.4 0 11.2-4.8 12-9.2v-38.8c0.4 0 1.2 0 2 0-0.8 0-1.6 0-2 0v-54c-0.4-2.8-2-6.8-8-6.8 0.4-0.4-15.2 0-15.2 0l-4-24.8h27.2c5.2 0 10 0 14.8 0v-34.4h20.8v34c5.6 0 11.2 0 16.4 0v-34h20.8v34.4c34.8 2 59.2 10.8 62.4 43.6 2.4 26.4-10 38-29.6 42.8 11.6 6 19.2 16.8 17.6 34.8v0 0zM296 193.6c0-25.6-44-22.8-58.4-22.8v45.6c14.4 0 58.4 4 58.4-22.8v0 0zM286.4 258c0-23.2-36.8-20.8-48.4-20.8v41.2c11.6 0 48.4 4 48.4-20.4v0 0zM255.6 451.2c81.2-54 158-68 194.4-71.2 2.4-44 2-154-54-240.8-52-80.8-114.4-126.4-140-143.2-25.2 16.8-88 63.6-140 144.8-55.6 86.8-56.4 195.2-54 238.8 36 3.6 108.4 17.6 193.6 71.6zM256 480c-112-75.2-204-77.2-214.8-77.2-0.8 0-1.2 0-1.2 0s-21.2-154.8 56-274.8c70.8-110 160-160 160-160s89.2 47.6 160 158c77.2 120 56 276.8 56 276.8s-0.4 0-1.2 0c-12 0-110.4 2-214.8 77.2v0z" />
<glyph unicode="&#xe601;" d="M256.8 456.8c50.8 0 92-41.6 92-92.4 0-41.2-25.2-75.6-64.4-88l-16.8-5.2v-94.4h56.8c6.8 0 12.4-5.6 12.4-12.8s-5.6-12.8-12.4-12.8h-56.8v-68.4h42c6 0 12.4-3.2 12.4-10.8 0-7.2-6.4-10.8-12.4-10.8h-42v-57.6c0-6.4-6.8-12.4-14.4-12.4s-11.2 6.4-11.2 12.4v267.2l-16 5.2c-36.8 12.8-62.8 48.8-62.8 88 0 51.2 42 92.8 93.6 92.8zM256.8 318.4c28 0 50.4 22.8 50.4 50.4 0 28-22.8 50.4-50.4 50.4s-50.4-22.8-50.4-50.4c0-27.6 22.4-50.4 50.4-50.4zM256.8 480.8c-64.4 0-117.6-52-117.6-116.4 0-51.6 34-95.2 79.2-110.8v-249.6c0-20 15.2-36.4 35.2-36.4s38.4 16.4 38.4 36.4v33.6h18c20 0 36.4 14.4 36.4 34.8 0 20-16.4 34.8-36.4 34.8h-18v20.4h32.8c20 0 36.4 16.8 36.4 36.8s-16.4 36.8-36.4 36.8h-32.8v52.4c48.8 15.2 80.8 58.8 80.8 110.4 0 64.4-51.6 116.8-116 116.8v0zM256.8 342.4c-14.8 0-26.4 12-26.4 26.4 0 14.8 12 26.4 26.4 26.4 14.8 0 26.4-12 26.4-26.4 0.4-14.4-11.6-26.4-26.4-26.4v0z" />
<glyph unicode="&#xe602;" d="M396 456.4c13.2 0 24-10.8 24-24v-416.8c0-13.2-10.8-24-24-24h-280c-13.2 0-24 10.8-24 24v416.8c0 13.2 10.8 24 24 24h280zM396 480.4h-280c-26.4 0-48-21.6-48-48v-416.8c0-26.4 21.6-48 48-48h280c26.4 0 48 21.6 48 48v416.8c0 26.4-21.6 48-48 48v0zM300.4 322.4c-1.6 15.6-15.2 20.8-32.4 22.4v22h-13.2v-21.2c-3.6 0-7.2 0-10.8 0v21.2h-13.2v-22c-2.8 0-5.6 0-8.4 0v0h-18.4v-14c0 0 10 0 9.6 0 5.6 0 7.2-3.2 7.6-6v-24.8c0.4 0 0.8 0 1.6 0-0.4 0-0.8 0-1.6 0v-34.8c-0.4-1.6-1.2-4.4-5.2-4.4 0 0-9.6 0-9.6 0l-2.8-16h17.2c3.2 0 6.4 0 9.6 0v-22h13.2v22c3.6 0 7.2 0 10.8 0v-21.6h13.2v22c22.4 1.2 38 6.8 40 28 1.6 16.8-6.4 24.4-19.2 27.6 8.4 3.2 13.2 10 12 21.6v0 0zM281.6 275.2c0-16.4-28.4-14.8-37.6-14.8v29.2c9.2 0.4 37.6 2.8 37.6-14.4v0 0zM275.6 316.4c0-15.2-23.6-13.2-31.2-13.2v26.4c7.6 0 31.2 2.4 31.2-13.2v0 0zM255.6 411.6c64.4 0 117.2-52.4 117.2-117.2s-52.8-116.8-117.2-116.8-117.2 52.4-117.2 117.2 52.4 116.8 117.2 116.8zM255.6 427.6c-73.6 0-133.2-59.6-133.2-133.2s59.6-133.2 133.2-133.2 133.2 59.6 133.2 133.2-60 133.2-133.2 133.2v0zM353.6 71.2v0c0-6.8-5.2-12-12-12h-171.2c-6.8 0-12 5.2-12 12v0c0 6.8 5.2 12 12 12h171.2c6.4 0 12-5.6 12-12z" />
<glyph unicode="&#xe603;" d="M366.4 191.6c79.6 0 144 64.4 144 144s-64.4 144-144 144-144-64.4-144-144 64.4-144 144-144zM366.4 455.6c66 0 120-54 120-120s-54-120-120-120-120 54-120 120 54 120 120 120zM346.4 344h-12c-7.6 0-10.4 1.6-18.4 2.8v-12.8c8 1.2 10.8 2.4 18.4 2.4h18.8l6.8-11.2v-9.2h-25.6c-7.6 0-10.4 0.8-18.4 2v-12.8c8 1.2 10.8 2.8 18.4 2.8h25.6v-18.4c0-7.6-0.4-13.6-1.6-17.6h16c-1.2 4-2.4 8.8-2.4 17.6v18.4h26.4c7.6 0 13.6-2 17.6-2.8v12.8c-4-1.2-10-2-17.6-2h-26.4v8.8l8 11.2h18.4c7.6 0 13.6-1.2 17.6-2.4v12.8c-4-1.2-10-2.8-17.6-2.8h-12l26.8 41.2c4.8 7.2 8.4 14.8 10.8 14.8h-18.8c-1.2-4-3.2-7.2-8.4-15.2l-30-48.4-30.4 48c-5.6 9.2-7.2 12-8.4 16h-18.4c2.4 0 5.2-7.2 10.4-14.8l26.4-41.2zM145.6 256.4c-79.6 0-144-64.4-144-144s64.4-144 144-144 144 64.4 144 144c0 79.2-64.4 144-144 144zM145.6-7.6c-66 0-120 54-120 120s54 120 120 120 120-54 120-120-54-120-120-120zM180 112.8c-6 4.4-12 6.8-28 10.4v46.4c8-1.2 11.2-2.8 15.6-6.8 4.8-4 6.4-8.4 7.6-16.8l14 2.4c-2.4 10.4-4 15.6-10 21.6-7.2 6.4-15.2 9.2-27.2 10.8v7.2h-12v-6.8c-12-1.2-16.8-3.2-23.2-7.2-9.2-6-14-16-14-27.6 0-10.8 4.4-20.4 12.8-25.2 6.4-4 12.8-6 24.8-8.8v-50.8c-8 0.8-14.8 3.2-19.6 8s-6.4 10-7.2 20l-14-2.4c2-12.8 4.4-19.6 10.8-26 7.2-6.8 14-9.6 30-11.2v-14h12v13.6c12 1.2 18.4 2.8 25.2 7.2 10 6.4 15.2 16.4 15.2 30-0.4 11.6-4.4 20-12.8 26zM140 124.8c-4 1.2-8.8 2.4-12 4-8.4 4-12 10-12 18 0 6.8 2.4 13.2 7.6 16.8 4.4 3.2 8.4 4.8 16.4 5.6v-44.4zM169.6 67.2c-4.8-3.6-9.6-5.2-17.6-6v49.2c12-2.8 14.8-4 18.4-6.4 5.2-4 8-9.6 8-17.2 0-8.4-3.2-15.6-8.8-19.6zM112 323.6l-18 16-18-20c11.2 66 56.4 102.4 132 102.4v24c-86.8 0-142.8-43.6-156-122.8l-10 16.8-20.8-12 37.2-64.4 53.6 60zM404.4 122.4l18.8-15.2 17.2 21.6c-3.2-29.2-13.2-53.2-29.6-71.2-21.6-23.2-53.6-36-95.6-38.4l1.2-24c48.4 2.4 86 18 111.6 46 20.4 22 32.4 50.4 36 84.8l10.8-16.4 20 13.2-40.4 62.4-50-62.8z" />
<glyph unicode="&#xe604;" d="M304.8 143.6c0-17.2-3.6-26.4-16-30.8-12.4-5.6-30.8-5.6-56.8-5.6-1.2 9.2-6.8 22.8-10.4 32 19.2-1.2 37.6-1.2 43.2 0 5.6 0 6.8 1.2 6.8 5.6v100.4h-74v-178.8h-33.2v178.8h-70.4v-140h-32v170.8h102.4v50c-41.2-2.4-83.2-3.6-120.8-3.6 0 9.2-4.4 21.6-6.8 28.4 94.8 1.2 207.6 9.2 275.6 19.6l12.4-29.6c-35.2-4.4-80.8-9.2-127.6-12.4v-52.4h107.2v-132.4zM676 146h-135.6v-78.8h-34v78.8h-134.4v30.8h134.4v48h-106v30.8h106v43.2h-122v32h122v48.8h34v-48.8h122v-32h-122v-43.2h107.2v-30.8h-107.2v-48h135.6v-30.8zM983.6 240.4c-18.4-45.6-48-82-85.6-108.4 35.2-17.2 77.6-27.2 125.2-33.2-6.8-8-16-21.6-19.2-30.8-54.8 8-100.4 21.6-138 44.4-42-22.8-90-36.4-141.2-45.6-2.4 9.2-11.2 22.8-17.2 30.8 46.8 6.8 91.2 18.4 128.8 35.2-28.4 22.8-52.4 51.2-70.8 85.6l11.2 4.4h-40v30.8h111.2v47.2h-126.4v32h126.4v49.2h33.2v-48.8h127.6v-32h-127.6v-46.8h74l5.6 1.2 22.8-15.2zM798 221.2c16-28.4 38.8-53.6 68.4-72.8 29.6 18.4 53.6 42 70.8 72.8h-139.2zM1166 368c-9.2-24-21.6-48.8-34-71.6v-229.2h-33.2v179.2c-9.2-12.4-19.2-25.2-29.6-35.2-3.6 8-12.4 25.2-19.2 32 34 32.8 66 82.8 84 134l32-9.2zM1363.2 273.6h-41.2v-166.4c0-22.8-5.6-30.8-20.4-35.2-14.8-5.6-38.8-5.6-75.2-5.6-2.4 9.2-8 22.8-12.4 32 27.2-1.2 56-1.2 64-1.2s11.2 2.4 11.2 10.4v166h-133.2v32h133.2v70.4h33.2v-70.8h41.2v-31.6zM1222 146c-9.2 21.6-30.8 56.8-46.8 84.4l27.2 12.4c16-25.2 38.8-60.4 48.8-80.8l-29.2-16z" horiz-adv-x="1400" />
<glyph unicode="&#xe605;" d="M459.6 312h-44l12.4 18.8-170.8 119.6-12.8-18-42 15.6-55.2-136h-94.8c-13.2 0-24.4-9.6-24.4-22.8v-268c0-13.2 11.2-25.2 24.4-25.2h406.8c13.2 0 24.4 12 24.4 25.2v268c0.4 13.2-10.8 22.8-24 22.8zM250.4 411.2l9.2 14.4 1.6 2.4 10-6.8 24.8-17.2 109.6-77.2-9.6-14.8h-213.2l67.6 99.2zM211.2 428.4l24.4-9.6-69.2-100.4v0.4l44.8 109.6zM460 124h-176v60h176v-60zM272.4 208c-6.8 0-12.4-4.8-12.4-11.2v-82.8c0-6.8 6-14 12.4-14h187.6v-80h-408v268h408v-80h-187.6zM314.4 141.2c7.6 0 14 6.4 14 14s-6.4 14-14 14-14-6.4-14-14 6.4-14 14-14zM314.4 157.2c1.2 0 2-0.8 2-2s-0.8-2-2-2-2 0.8-2 2 1.2 2 2 2z" />
<glyph unicode="&#xe606;" d="M208-32c3.2 25.2 5.2 51.2 5.2 82.8v43.6h-96.8c-28.8 0-45.6-1.2-67.6-5.2v73.6c22.4-4 38-5.2 67.6-5.2h97.2v19.2l-21.6 32.8h-74.4c-29.6 0-45.6-1.2-67.6-5.2v73.2c21.2-4 38-5.2 67.6-5.2h36l-89.2 141.6c-18.8 28.8-35.6 53.6-45.2 66h110.4c5.6-18.8 12.8-32.8 30.8-62.8l95.2-163.2 95.2 162.4c18 30 25.6 46.4 30.8 63.6h111.2c-8.4-10.8-34-47.6-45.6-66l-88.8-141.6h36c28.8 0 46.4 1.2 67.6 5.2v-73.2c-22 4-39.2 5.2-67.6 5.2h-75.2l-21.2-33.6v-18.8h95.2c28.8 0 44.8 1.2 67.6 5.2v-73.2c-22 4-39.2 5.2-67.6 5.2h-95.2v-43.6c0-36.8 1.2-57.2 5.2-82.8h-95.2z" />
<glyph unicode="&#xe607;" d="M256 480.4c-141.6 0-256.4-114.8-256.4-256.4s114.8-256.4 256.4-256.4 256.4 114.8 256.4 256.4-114.8 256.4-256.4 256.4zM333.2 248c16.4 0 22.8 3.6 34.8 5.6v-41.2c-12 2-18.8 3.2-34.8 3.2h-42l-15.2-18.8v-12.8h56.8c16 0 23.2 3.2 35.2 5.2v-41.2c-12 2-19.6-0.4-35.2-0.4h-56.8v-21.2c0-20.4 4-34.8 6.4-46.8h-53.6c2 12-0.8 29.2-0.8 46.8v21.6h-50.4c-16 0-29.6 2.4-41.6 0.4v40.8c16-2 24.8-5.2 41.6-5.2h50.4v13.2l-8 18.8h-42c-16.4 0-26-1.2-38-3.2v40.8c12-2 21.6-5.6 38-5.6h20l-49.6 79.2c-10.4 16-19.6 32.8-25.2 36.8h62c3.2-8 7.2-16.8 17.2-33.6l53.2-90.8 53.2 90c10 16.8 14.4 26.4 17.2 34.4h62.4c-4.8-4-19.2-26.4-25.6-36.8l-49.6-79.2h20z" />
<glyph unicode="&#xe608;" d="M240 479.2h48.8v-54.4c37.2-2 66-9.6 88.4-19.2l-22-64c-24.8 11.6-56.4 20-81.2 20-25.6 0-60-6.4-60-42.8 0-23.2 28-37.2 63.2-52.4 76.4-33.2 109.6-64 109.6-120.8 0-70-44-102.8-98.4-111.2v-66.4h-48.4v64c-47.2 1.6-89.6 11.6-115.6 21.6l20 67.2c30-13.2 75.6-24.4 109.6-24.4 25.2 0 53.6 10.4 53.6 44.4 0 26-23.2 44-75.2 65.2-57.2 24-96.4 46.4-96.4 109.2 0 73.2 56 101.6 104 108v56z" />
<glyph unicode="&#xe609;" d="M256 480.4c-141.6 0-256.4-114.8-256.4-256.4s114.8-256.4 256.4-256.4 256.4 114.8 256.4 256.4-114.8 256.4-256.4 256.4zM276 96v-44h-32v42c-32 1.2-59.6 8-76.8 14.8l13.6 45.6c20-9.2 50.8-16.4 73.6-16.4 16.8 0 36 7.2 36 30.4 0 17.6-15.6 30-50.4 44.4-38.4 16-65.6 31.2-65.6 74 0.4 49.6 37.6 69.2 69.6 73.6v39.6h32v-38.8c24-1.6 45.2-6.4 60.4-12.8l-14.4-43.6c-16.4 8-37.6 13.6-54 13.6-17.2 0-40-4.4-40-29.2 0-16 18.8-25.2 42.4-35.6 51.2-22.8 72.4-43.6 72.4-82 0-47.6-30.8-70-66.8-75.6z" />
<glyph unicode="&#xe60a;" d="M487.2 44.8l-22-76.8h-435.2l46 169.6-56.8-20.4 12.8 68.8 63.6 20.8 74 269.2h159.2l-56.8-206 74 27.2-12.8-68-80.8-32.4-35.2-132.8h275.6z" />
<glyph unicode="&#xe60b;" d="M256 480.4c-141.6 0-256.4-114.8-256.4-256.4s114.8-256.4 256.4-256.4 256.4 114.8 256.4 256.4-114.8 256.4-256.4 256.4zM370.8 134.4l-11.2-38.4h-215.6l22.8 84.4-28.4-10 6.4 34 31.6 10.4 36.8 133.2h78.8l-28-102 36.8 13.6-6.4-33.6-40-16-17.6-66h136.8l-2.8-9.6z" />
<glyph unicode="&#xe60c;" d="M413.2 322c-5.2 55.6-53.6 74-114.4 79.2v77.2h-47.2v-75.2c-12.4 0-25.2-0.4-37.6-0.4v75.6h-47.2v-77.2c-10.4-0.4-20.4-0.4-30-0.4v0.4h-65.2v-50c0 0 34.8 0.8 34.4 0 19.2 0 25.2-11.2 27.2-20.4v-88c1.2 0 3.2 0 4.8-0.4-1.6 0-3.2 0-4.8 0v-123.2c-0.8-6-4.4-15.6-17.6-15.6 0.8-0.4-34.4 0-34.4 0l-9.6-56h61.2c11.6 0 22.8 0 33.6-0.4v-78h47.2v77.2c12.8-0.4 25.6-0.4 37.6-0.4v-76.8h47.2v78c79.2 4.8 134.8 24.4 141.6 98.8 5.6 59.6-22.4 86.4-67.6 96.8 27.6 14 44.4 38.8 40.8 79.2v0zM346.8 155.2c0-58.4-100.4-51.6-132.4-52v103.2c32.4 0.4 132.4 9.6 132.4-51.2v0zM325.2 300.8c0-53.2-83.6-46.8-110.4-46.8v93.6c26.8 0 110.4 8.8 110.4-46.8v0z" />
<glyph unicode="&#xe60d;" d="M298.4 273.6c0 34.4-52.4 29.2-68.8 29.2v-58.4c16.4-0.4 68.4-4 68.8 29.2zM229.2 214.4v-64.4c20 0 82.8-4 82.8 32.4 0 38-62.8 32-82.8 32zM255.2 481.6c-142 0-256.4-114.8-256.4-256.4s114.8-256.4 256.4-256.4 256.4 114.8 256.4 256.4-114.8 256.4-256.4 256.4zM370 176.8c-4.4-46.4-39.2-58.8-88.8-61.6v-48.8h-29.6v48c-7.6 0-15.6 0-23.6 0v-48.4h-29.6v48.8c-6.8 0-14 0-21.2 0h-38.4l6 35.2c0 0 22-0.4 21.6 0 8.4 0 10.4 6 11.2 9.6v76.8c1.2 0 2 0 3.2 0-1.2 0-2.4 0-3.2 0.4v54.8c-1.2 6-5.2 12.8-16.8 12.8 0.4 0.4-21.6 0-21.6 0v31.2l40.8 0.4c8 0 12.8 0 18.8 0.4v48h29.6v-47.2c8 0 16 0.4 23.6 0.4v46.8h29.6v-48c38-3.2 68-14.8 71.6-49.6 2.4-25.6-8.4-40.8-25.2-49.2 28-6.8 45.6-23.6 42-60.8z" />
<glyph unicode="&#xe60e;" d="M256 456c128 0 232-104 232-232s-104-232-232-232-232 104-232 232 104 232 232 232zM256 480c-141.2 0-256-114.8-256-256s114.8-256 256-256c141.2 0 256 114.8 256 256s-114.8 256-256 256v0zM361.6 107.2c-3.2 0-6 1.2-8.4 3.6l-107.2 106.8c-2.4 2.4-3.6 5.2-3.6 8.4v199.2c0 6.8 5.2 12 12 12s12-5.2 12-12v-194l103.2-103.2c4.8-4.8 4.8-12.4 0-16.8-2-2.8-5.2-4-8-4z" />
<glyph unicode="&#xe60f;" d="M211.2 219.6c7.6 12.4 11.6 27.6 11.6 44 0 43.2-32 78.4-70.8 78.4s-70.4-35.2-70.4-78.4c0-16 4.8-30.8 12.4-43.2-50-27.6-54-34.8-54-46.8v-31.6c0-18.4 15.2-33.6 33.6-33.6h156.8c18 0 33.6 14 33.6 33.6v31.6c0 9.6-0.8 17.2-52.8 46zM152 322c28 0 50.4-26.4 50.4-58.4 0-32.4-22.4-58.4-50.4-58.4s-50.4 26.4-50.4 58.4c0 32.4 22.4 58.4 50.4 58.4zM244 141.6c0-7.2-6.4-13.6-13.6-13.6h-156.8c-7.2 0-13.6 6.4-13.6 13.6v31.6c0 4 24.8 19.2 49.2 32.4 11.6-11.2 26.4-18.4 42.8-18.4s31.6 6.8 42.8 18.4c24.4-13.2 49.2-28.4 49.2-32.4v-31.6zM464 404h-416c-26.4 0-48-21.6-48-48v-264c0-26.4 21.6-48 48-48h416c26.4 0 48 21.6 48 48v264c0 26.4-21.6 48-48 48zM492 92c0-15.6-12.4-28-28-28h-416c-15.6 0-28 12.4-28 28v264c0 15.6 12.4 28 28 28h416c15.6 0 28-12.4 28-28v-264zM456.8 232.8c3.6 2.4 5.2 6.8 4 10.8l-4 12c-1.2 4-5.2 6.8-9.6 6.4l-8.8-0.8-1.6-0.4c-2.4 4-4.8 7.6-8 10.8l0.8 1.2 0.4 0.4 3.2 8c1.6 4 0.4 8.8-3.2 11.2l-10 7.2c-3.6 2.4-8.4 2.4-11.6-0.4l-6.8-5.6-0.4-0.4v-0.4c-4 2-8.8 3.2-12.8 4.4v1.6l-2.8 10c-1.6 4.4-5.2 7.2-9.6 7.2h-12.4c-4.4 0-8.4-3.2-9.2-7.2l-2.4-10v-0.4c-4-0.8-9.6-2.4-14-4v0l-6.8 5.6c-3.2 2.8-8 2.8-11.6 0.4l-10-7.2c-3.6-2.4-4.8-7.2-3.2-11.2l0.8-1.6c1.2-3.2 0.8-6.8-1.6-9.6-1.2-1.2-2.4-2.8-3.2-4.4-2-2.8-5.2-4-8.4-4h-2c-4 0-8-2.4-9.6-6.8l-4-12c-1.2-4 0.4-8.8 4-11.2l0.4-0.4c2.8-2 4.8-5.2 4.4-8.8 0-1.6 0-2.8 0-4.4 0-0.8 0-1.6 0-2 0-3.2-1.6-6.4-4.4-8.4l-0.4-0.4c-3.6-2.4-5.2-6.8-4-10.8l4-12c1.2-4 5.2-6.8 9.6-6.4 3.2 0.4 6.8-1.2 8.4-4 1.2-2 2.8-4 4.4-6 2-2.8 2.4-6 1.2-9.2v0c-1.6-4-0.4-8.8 3.2-11.2l10-7.2c3.6-2.4 8.4-2.4 11.6 0.4l0.4 0.4c2.4 2 6 2.8 9.2 1.6 2-0.8 4-1.2 6-1.6 3.6-0.8 6-3.6 7.2-6.8v-0.4c1.2-4 4.8-7.2 9.2-7.2h13.2c4.4 0 8 2.8 9.2 7.2l0.4 1.2c0.8 3.2 3.2 5.6 6.4 6.8 1.6 0.4 3.2 1.2 5.2 1.6 3.2 1.2 6.8 0.4 9.2-1.6l1.6-1.2c3.2-2.8 8-2.8 11.6-0.4l10 7.2c3.6 2.4 4.8 7.2 3.2 11.2l-1.2 3.2c-1.2 2.8-0.8 6.4 0.8 8.8 2 2.4 3.6 5.2 5.2 8l0.4-0.4 8.8-0.4c4.4-0.4 8.4 2.4 9.6 6.4l4 12c1.2 4-0.4 8.8-4 11.2l-7.6 4.8-1.2 0.4c0 2 0.4 3.6 0.4 5.6 0 2.8 0 5.6-0.4 8l1.6 0.4 7.6 5.2zM408.8 185.2c-0.8-0.8-1.2-1.6-2-2-54.8-40.4-116 20.8-76 76 0.8 0.8 1.2 1.6 2 2 54.8 40 116-21.2 76-76zM380 234.8c-16.4 10.8-33.6-6.8-23.2-23.2 0.8-0.8 1.6-2 2.4-2.4 16.4-10.8 33.6 6.8 23.2 23.2-0.8 0.8-1.6 1.6-2.4 2.4z" />
<glyph unicode="&#xe610;" d="M295.2 230c8.4 3.2 13.2 10 12 21.6-1.6 15.6-15.2 20.8-32.4 22.4v22h-13.2v-21.2c-3.6 0-7.2 0-10.8 0v21.2h-13.2v-22c-2.8 0-5.6 0-8.4 0h-18.4v-14c0 0 10 0 9.6 0 5.6 0 7.2-3.2 7.6-6v-59.6c-0.4-1.6-1.2-4.4-5.2-4.4h-9.6l-2.8-16h17.2c3.2 0 6.4 0 9.6 0v-22h13.2v22c3.6 0 7.2 0 10.8 0v-21.6h13.2v22c22.4 1.2 38 6.8 40 28 1.6 16.8-6.4 24.4-19.2 27.6zM251.2 258.8c7.6 0 31.2 2.4 31.2-13.2 0-15.2-23.6-13.2-31.2-13.2v26.4zM250.8 189.6v29.2c9.2 0.4 37.6 2.8 37.6-14.4 0-16.4-28.4-14.8-37.6-14.8zM511.6 224c0 67.6-26 128.8-68.8 174.8 0 0 0 0 0 0.4h-0.4c-46.4 49.2-112.4 80.4-185.6 80.8-0.4 0-0.4 0-0.8 0 0 0 0 0-0.4 0 0 0-0.4 0-0.4 0-141.2 0-256-114.8-256-256 0-68 26.4-129.6 69.6-175.2 0 0 0 0 0-0.4h0.4c46.4-49.6 112.8-80.4 186.4-80.4 0 0 0.4 0 0.4 0s0 0 0.4 0 0.4 0 0.8 0c72.8 0.4 138.4 31.2 184.8 80.4h0.4c0 0 0 0 0 0.4 42.8 46 69.2 107.6 69.2 175.2zM487.2 234h-54.8c-3.6 11.6-12.8 20.4-24.4 23.2-2.8 33.6-9.2 65.2-18.8 93.6 18.4 6.4 33.2 14.4 42.4 24 32.8-38.4 53.2-87.2 55.6-140.8zM288.4 114.4c-4 14.4-17.2 25.2-32.8 25.2s-28.8-10.8-32.8-25.2c-28.8-1.6-56.8-5.6-80.4-11.6-9.6 27.6-15.6 58.4-18 90.4 11.6 5.6 19.6 17.2 19.6 30.8s-8 25.2-19.6 30.8c2.4 32 8.4 62.8 18 90 24-6.4 52-10 80.8-12 4.4-14 17.2-24 32.8-24 15.2 0 28.4 10 32.8 24 29.2 1.6 57.6 5.6 82 12 9.6-27.2 15.6-57.2 18-89.2-13.2-4.8-22.4-17.2-22.4-32s9.2-27.2 22.4-32c-2.4-32-8.4-62.4-18-89.6-24.8 6.8-53.2 10.8-82.4 12.4zM255.6 87.2c-10 0-18 8-18 18s8 18 18 18 18-8 18-18c0-9.6-8-18-18-18zM109.2 242c10 0 18-8 18-18s-8-18-18-18-18 8-18 18c0 10 8 18 18 18zM255.6 361.2c10 0 18-8 18-18s-8-18-18-18-18 8-18 18 8 18 18 18zM400 206c-10 0-18 8-18 18s8 18 18 18c10 0 18-8 18-18s-8-18-18-18zM418 389.2c-6-6.8-18.4-13.6-36-19.6-12 28.8-27.2 52.8-44.8 71.6 30.4-11.6 58-29.6 80.8-52zM285.2 454c22.8-9.2 44.4-29.6 62-59.2 5.6-9.6 10.8-20 15.6-30.8-20.4-5.2-45.6-9.2-74.8-10.8-3.2 10.8-12 19.6-22.8 22.8v80c6.8-0.4 13.6-1.2 20-2zM227.2 454.4c6 0.8 12 1.2 18 1.6v-80c-10.8-3.2-19.6-12-22.8-22.8-28.8 1.6-53.6 5.6-73.6 10.8 4.8 10.8 10 21.2 15.6 30.8 18.4 30 40 50 62.8 59.6zM175.2 441.6c-18-18.4-33.6-43.2-45.6-72.4-18 6.4-30.4 13.6-36.4 20.4 23.6 22.8 51.2 40.8 82 52zM79.6 375.2c9.2-10 24.4-18 43.2-24.4-9.6-28-16-59.6-18.8-93.2-13.2-2-23.6-11.2-27.6-23.6h-52.8c2.4 54 23.2 103.2 56 141.2zM23.6 214h52.8c3.6-12.4 14.4-21.6 27.6-23.6 2.8-33.6 9.2-65.2 18.8-93.2-18.8-6.4-33.6-14.4-43.2-24.4-32.8 38.4-53.6 87.2-56 141.2zM93.6 58c6.4 6.8 18.8 14 36.4 20 12-28.8 27.6-53.2 45.2-72-30.8 11.6-58.8 29.6-81.6 52zM164.8 53.2c-5.6 9.6-10.8 19.6-15.6 30.4 20 5.2 45.2 8.8 74 10.4 3.6-10.4 12-18.4 22.4-21.6v-80.4c-6 0.4-12 0.8-18 1.6-23.2 9.6-44.8 29.6-62.8 59.6zM285.2-6c-6.4-0.8-13.2-1.6-20-1.6v80.4c10.4 3.2 18.8 11.2 22.4 21.6 29.2-1.6 54.4-5.6 74.8-10.8-4.4-10.8-9.6-20.8-15.2-30.4-17.6-29.6-39.2-50-62-59.2zM337.2 6.8c17.6 18.4 32.8 42.4 44.8 70.8 17.2-6 29.6-12.8 35.6-19.6-22.8-22-50-39.6-80.4-51.2zM431.2 72.8c-9.2 9.6-24 17.6-42 24 9.6 28.4 16.4 60.4 18.8 94.4 11.6 2.8 21.2 11.6 24.4 23.2h54.8c-2.4-54.4-23.2-103.2-56-141.6z" />
<glyph unicode="&#xe611;" d="M396 456c13.2 0 24-10.8 24-24v-416c0-13.2-10.8-24-24-24h-280c-13.2 0-24 10.8-24 24v416c0 13.2 10.8 24 24 24h280zM257.2 164c70.4 0 128 57.6 128 128s-57.6 128-128 128-128-57.6-128-128 57.6-128 128-128zM171.6 32h171.2c20 0 36 16 36 36s-16 36-36 36h-171.2c-20 0-36-16-36-36s16.4-36 36-36zM396 480h-280c-26.4 0-48-21.6-48-48v-416c0-26.4 21.6-48 48-48h280c26.4 0 48 21.6 48 48v416c0 26.4-21.6 48-48 48v0zM257.2 188c-57.6 0-104 46.4-104 104s46.4 104 104 104c57.6 0 104-46.4 104-104s-46.4-104-104-104v0zM171.6 56c-6.8 0-12 5.2-12 12s5.2 12 12 12h171.2c6.8 0 12-5.2 12-12s-5.2-12-12-12h-171.2zM276 336h-44c-13.2 0-24-10.8-24-24v-44c0-13.2 10.8-24 24-24h44c13.2 0 24 10.8 24 24v44c0 13.2-10.8 24-24 24v0zM232 268v44h45.6v-44h-45.6z" />
<glyph unicode="&#xe612;" d="M480-8v20h-24v-20h-20v20h-24v-20h-24v20h-24v-20h-20v20h-24v-20h-24v20h-24v-20h-20v20h-24v-20h-24v20h-24v-20h-20v20h-24v-20h-24v20h-24v-20h-20v20h-24v-20h-24v20h16v24h-16v20h16v24h-16v24h16v24h-16v20h16v24h-16v24h16v24h-16v20h16v24h-16v24h16v24h-16v20h16v24h-16v24h16v24h-16v20h16v24h-16v32h-24v-512h516v24zM107.6 163.2c24.8 0 45.2 20.4 45.2 45.2 0 6.4-1.2 12.4-3.6 18l31.2 31.2c6.8-4 14.8-6.4 23.2-6.4 7.6 0 14.4 2 20.8 5.2l43.2-43.2c-3.2-6.4-5.2-13.2-5.2-20.8 0-24.8 20.4-45.2 45.2-45.2s45.2 20.4 45.2 45.2c0 7.6-2 15.2-5.6 21.6l78.8 78.8c6.4-3.6 13.6-5.6 21.6-5.6 24.8 0 45.2 20.4 45.2 45.2s-20.4 45.2-45.2 45.2c-24.8 0-45.2-20.4-45.2-45.2 0-8.4 2.4-16.4 6.4-23.2l-78.4-78c-6.8 4-14.8 6.4-23.2 6.4-8.8 0-16.8-2.4-24-6.8l-41.6 42c4.4 6.8 6.8 15.2 6.8 24 0 24.8-20.4 45.2-45.2 45.2s-45.2-20.4-45.2-45.2c0-7.6 2-15.2 5.6-21.6l-30-30c-7.6 5.2-16.4 8.4-26.4 8.4-24.8 0-45.2-20.4-45.2-45.2 0.4-24.8 20.4-45.2 45.6-45.2zM447.6 353.6c11.6 0 21.2-9.6 21.2-21.2s-9.6-21.2-21.2-21.2c-11.6 0-21.2 9.6-21.2 21.2 0 12 9.2 21.2 21.2 21.2zM328.8 192.4c0-11.6-9.6-21.2-21.2-21.2s-21.2 9.6-21.2 21.2c0 11.6 9.6 21.2 21.2 21.2s21.2-9.2 21.2-21.2zM203.6 317.6c11.6 0 21.2-9.6 21.2-21.2s-9.6-21.2-21.2-21.2c-11.6 0-21.2 9.6-21.2 21.2 0 12 9.2 21.2 21.2 21.2zM107.6 229.6c11.6 0 21.2-9.6 21.2-21.2s-9.6-21.2-21.2-21.2c-11.6 0-21.2 9.6-21.2 21.2 0 12 9.2 21.2 21.2 21.2z" />
<glyph unicode="&#xe613;" d="M336.4-25.2h-260.4c-8.8 0-16 7.2-16 16v466.8c0 8.8 7.2 16 16 16h260.4c8.8 0 16-7.2 16-16v-103.2h-24v94.8h-244v-450.4h244v95.2h24v-103.2c-0.4-8.8-7.2-16-16-16zM347.6 315.6c1.2 0 2.4-0.4 3.2-1.2l87.6-88.4c1.6-1.6 1.6-4.8 0-6.4l-87.2-88c-0.8-0.8-2-1.2-3.2-1.2-2.4 0-4.4 1.6-4.4 4.4l-0.4 35.6c0 2.4-2 4.4-4.4 4.4h-105.6v94h105.2c2.4 0 4.4 2 4.4 4.4v37.6c0.4 3.2 2.8 4.8 4.8 4.8zM347.6 335.6c-13.6 0-24.4-10.8-24.4-24.4v-22.4h-110v-134h110v-20.4c0-13.6 11.2-24.4 24.4-24.4 6.4 0 12.8 2.4 17.2 7.2l87.2 88c9.6 9.6 9.6 25.2 0 34.4l-86.8 88.8c-4.8 4.8-10.8 7.2-17.6 7.2v0zM295.2 224c0-7.069-5.731-12.8-12.8-12.8s-12.8 5.731-12.8 12.8c0 7.069 5.731 12.8 12.8 12.8s12.8-5.731 12.8-12.8z" />
<glyph unicode="&#xe614;" d="M124 364c8.8 0 16 7.2 16 16v64c0 8.8-7.2 16-16 16s-16-7.2-16-16v-64c0-8.8 7.2-16 16-16zM388 364c8.8 0 16 7.2 16 16v64c0 8.8-7.2 16-16 16s-16-7.2-16-16v-64c0-8.8 7.2-16 16-16zM488 428h-76v-48.4c0-13.6-10.4-24.4-24-24.4s-24 11.2-24 24.4v48.4h-216v-48.4c0-13.6-10.4-24.4-24-24.4s-24 11.2-24 24.4v48.4h-76c-13.2 0-24-10.8-24-24v-392c0-13.2 10.8-24 24-24h464c13.2 0 24 10.8 24 24v392c0 13.2-10.8 24-24 24zM488 12h-464v292h464v-292zM262 186.4c-30-30.4-40.8-65.2-44.4-80-2.8-11.2-4.4-22.4-6-34.4h44.4c1.2 24 2.8 32 6 43.6 9.2 33.2 29.2 57.2 37.2 66 14.4 16.4 24.8 23.2 36.8 27.2v27.2h-152v-32h99.2c-11.6-8-15.6-12-21.2-17.6z" />
<glyph unicode="&#xe615;" d="M112.8 219.6l252.8 252.8 33.6-33.6-218.8-219.2 218.8-218.8-33.6-34z" />
<glyph unicode="&#xe616;" d="M437.678 299.149v106.529h-106.529l-75.149 75.562-75.149-75.562h-106.529v-106.529l-75.562-75.149 75.562-75.149v-106.529h106.529l75.149-75.562 75.149 75.562h106.529v106.529l75.562 75.149-75.562 75.149zM74.323 177.755l-46.245 46.245 46.245 46.245v-92.491zM256 451.923l46.245-46.245h-92.491l46.245 46.245zM94.968 385.033h65.239l-65.239-65.239v65.238zM94.968 290.891l94.142 94.142h66.064l-160.207-160.62v66.478zM256 356.542l132.542-132.542-132.542-132.542-132.542 132.542 132.542 132.542zM94.968 62.967v65.238l65.239-65.238h-65.239zM94.968 157.11v66.065l160.62-160.207h-66.065l-94.555 94.142zM256-3.923l-46.245 46.245h92.077l-45.833-46.245zM417.033 62.967h-65.238l65.238 65.238v-65.238zM417.033 157.11l-94.142-94.142h-66.065l160.207 160.619v-66.478zM417.033 224.413l-160.62 160.62h66.065l94.555-94.142v-66.477zM417.033 319.794l-65.238 65.238h65.238v-65.238zM437.678 270.245l46.245-46.245-46.245-46.245v92.491z" />
<glyph unicode="&#xe617;" d="M256 363.2l252.8-252.8-34-34-218.8 218.8-218.8-218.8-34 34z" />
<glyph unicode="&#xe618;" d="M399.2 219.6l-252.8-252.8-33.6 34 218.8 218.8-218.8 219.2 33.6 33.6z" />
<glyph unicode="&#xe619;" d="M256 76.4l-252.8 252.8 34 34 218.8-218.8 218.8 218.8 34-34z" />
<glyph unicode="&#xe61a;" d="M256 476c-139.2 0-252-112.8-252-252s112.8-252 252-252 252 112.8 252 252-112.8 252-252 252zM256-12c-130.4 0-236 105.6-236 236s105.6 236 236 236 236-106 236-236-105.6-236-236-236zM360 232.8l-40.8-41.2h30.8c-2-47.2-39.2-85.6-86-89.6v158h20c5.6 0 10 4.4 10 10s-4.4 10-10 10h-7.6c15.2 7.6 25.6 23.2 25.6 41.6 0 25.6-20.8 46.4-46.4 46.4s-46.4-20.8-46.4-46.4c0-18 10.4-34 25.6-41.6h-10.8c-5.6 0-10-4.4-10-10s4.4-10 10-10h20v-157.6c-44.8 5.6-80 43.2-82 89.2h30.8l-40.8 41.2-41.2-41.2h31.2c2-62 52.4-109.6 114-109.6s112 48 114 110h31.2l-41.2 40.8zM256 347.6c14.4 0 26.4-11.6 26.4-26.4s-11.6-26.4-26.4-26.4-26.4 11.6-26.4 26.4 12 26.4 26.4 26.4z" />
<glyph unicode="&#xe61b;" d="M256 477.6c-140 0-253.6-113.6-253.6-253.6s113.6-253.6 253.6-253.6 253.6 113.6 253.6 253.6-113.6 253.6-253.6 253.6zM256-13.6c-130.8 0-237.6 106.8-237.6 237.6s106.8 237.6 237.6 237.6 237.6-106.4 237.6-237.6-106.8-237.6-237.6-237.6zM410 271.2c-19.6 0-35.6-16-35.6-35.6 0-5.6 1.2-10.8 3.6-15.6l-58.4-48.8c-6.4 5.6-14.8 9.2-24 9.2-6 0-11.6-1.6-16.8-4l-56.4 65.6c4.4 6 6.8 13.2 6.8 21.2 0 19.6-16 35.6-35.6 35.6s-35.6-16-35.6-35.6c0-6.4 1.6-12.4 4.4-17.6l-35.2-32c-5.6 4-12.8 6.4-20 6.4-19.6 0-35.6-16-35.6-35.6s16-35.6 35.6-35.6c19.6 0 35.6 16 35.6 35.6 0 6.4-1.6 12.4-4.8 17.6l35.2 31.6c5.6-4 12.8-6.4 20.4-6.4 6 0 11.6 1.6 16.8 4l56.8-65.6c-4.4-5.6-7.2-12.8-7.2-20.8 0-19.6 16-35.6 35.6-35.6s35.6 16 35.6 35.6c0 4.8-0.8 9.2-2.8 13.2l59.6 49.6c6-4.8 14-7.6 22-7.6 19.6 0 35.6 16 35.6 35.6s-15.6 35.6-35.6 35.6zM106.8 164.4c-10.8 0-19.6 8.8-19.6 19.6s8.8 20 19.6 20c10.8 0 19.6-8.8 19.6-19.6s-8.8-20-19.6-20zM173.6 263.2c0 10.8 8.8 19.6 19.6 19.6s19.6-8.8 19.6-19.6c0-10.8-8.8-19.6-19.6-19.6-10.4-0.4-19.6 8.4-19.6 19.6zM296 125.2c-10.8 0-19.6 8.8-19.6 19.6s8.8 19.6 19.6 19.6 19.6-8.8 19.6-19.6c0-10.8-8.8-19.6-19.6-19.6zM410 215.6c-10.8 0-19.6 8.8-19.6 19.6s8.8 19.6 19.6 19.6 19.6-8.8 19.6-19.6c0.4-10.8-8.8-19.6-19.6-19.6z" />
<glyph unicode="&#xe61c;" d="M256 458c129.2 0 234-105.2 234-234s-104.8-234-234-234-234 104.8-234 234 104.8 234 234 234zM256 474c-138 0-250-112-250-250s112-250 250-250 250 112 250 250-112 250-250 250v0zM308 56h-80c-4.4 0-8 3.6-8 8v29.2c-8 0.4-18.4 1.6-29.2 5.6-17.6 6.8-26.8 16.4-32.8 33.2-1.2 2.8-1.6 5.2-2 7.6-0.8 4-1.6 7.6-5.2 13.6-4 7.2-14 12.4-17.2 13.6-4 1.2-6.4 5.2-5.2 9.2 0.8 4 4.4 6.4 8.4 6 1.6 0 16.4-1.6 25.2-5.2 11.2-4.4 17.6-14.4 23.2-23.2 2.8-4 5.2-8 7.6-10.8 0.8-1.2 5.6-4.4 21.2-4.4 2 0 4 0 6 0v18.8c-40 6.8-68 40-68 82v22.8c0 21.2 9.6 38.8 18.8 50.4-8 26 3.2 47.6 4 48.4 1.2 2.4 4 4 6.8 4 0 0 0.4 0 0.8 0 2.8 0 25.6-0.8 39.6-22.8 6 0.8 11.6 1.2 16.8 1.2h65.2c5.2 0 10.8 0 16.4-1.2 14 22.4 36.8 23.2 39.2 23.2 3.2 0 6-2 7.6-4.8 0.4-0.8 9.6-22.4 1.2-48 10.4-14 16-31.2 16-50.8v-22.8c0-42.4-28-75.6-68-82v-92.8c-0.4-4.4-4-8-8.4-8zM236 72h64v92.8c0 4 3.2 7.6 7.6 8 34.8 2.4 60.4 30.8 60.4 66.8v22.8c0 17.6-5.2 32.8-15.2 44-2 2.4-2.4 5.6-1.2 8.4 5.6 14.4 4 27.6 2.4 34.8-6-1.6-16.4-6-22.4-18.8-1.6-3.6-5.6-5.2-9.6-4-6 1.2-12 1.2-18.4 1.2h-65.2c-7.6 0-13.6-0.4-18.8-2-3.6-1.2-7.6 0.8-9.6 4-6.4 13.6-17.2 17.6-23.2 18.8-2.4-6.8-5.2-20.4 0.4-34.8 1.2-2.8 0.4-6-1.2-8.4-8-9.6-18-24.8-18-43.6v-22.8c0-36 25.6-64 60.8-66.8 4-0.4 7.2-4 7.2-8v-33.6c0-4-3.2-7.6-7.2-8-3.6-0.4-8.8-0.8-14.8-0.8-16 0-26.8 3.2-32.8 9.6-3.6 4-6.8 8.8-9.6 13.6-0.4 0.8-1.2 1.6-1.6 2.4 0.4-2 0.8-3.6 1.2-5.2 0.4-2 0.8-3.6 1.6-5.6 4-10.4 8.8-17.6 24-23.6 10.4-4.4 20.8-4.8 28-4.8 1.2 0 2.4 0 3.2 0 2 0 4.4-0.8 5.6-2.4 1.6-1.6 2.4-3.6 2.4-5.6v-28.4z" />
<glyph unicode="&#xe61d;" d="M406.016-8.363h-121.6v40.022h121.6c22.442 0 42.837 11.606 54.016 31.232s11.178 42.837 0 62.379l-150.016 259.926c-11.178 19.627-31.574 31.232-54.016 31.232s-42.838-11.606-54.016-31.232l-150.016-260.011c-11.179-19.627-11.179-42.837 0-62.378 11.179-19.627 31.573-31.232 54.016-31.232h128.427v-40.022h-128.427c-37.206 0-69.974 19.2-88.832 51.2s-18.432 70.4 0 102.4l150.016 260.011c18.432 32 51.626 51.2 88.832 51.2s69.974-19.2 88.832-51.2l150.016-260.011c18.432-32 18.432-70.4 0-102.4-18.432-31.914-51.627-51.115-88.832-51.115zM236.032 311.979h40.021v-168.022h-40.022v168.022zM236.032 118.358h40.021v-35.243h-40.022v35.243z" />
<glyph unicode="&#xe61e;" d="M411.2-21.6h-310.4c-50 0-90.4 40.8-90.4 90.4v310.4c0 50 40.8 90.4 90.4 90.4h310.4v-40h-310.4c-28 0-50.4-22.8-50.4-50.4v-310.4c0-28 22.8-50.4 50.4-50.4h310.4c28 0 50.4 22.8 50.4 50.4v191.2h40v-191.2c0-50-40.4-90.4-90.4-90.4zM208.8 103.6c-14 0-28.4 5.2-39.2 16l-77.6 78 28.4 28.4 77.6-78c6-6 15.6-6 21.6 0l248 248 28.4-28.4-248-248c-10.8-10.8-24.8-16-39.2-16z" />
<glyph unicode="&#xe61f;" d="M386 302v52.4c0 63.6-58.4 115.2-130 115.2v0c-71.6 0-129.6-51.6-129.6-115.2v-52.4c-44.8-3.2-80.4-40.4-80.4-86v-151.2c0-47.6 38.8-86.4 86.4-86.4h247.2c47.6 0 86.4 38.8 86.4 86.4v151.2c0 45.6-35.2 82.8-80 86zM166.4 354.4c0 41.6 40.4 75.2 89.6 75.2 49.6 0 89.6-34 89.6-75.2v-48h-179.2v48zM276 132.8v-54.4c0-6.8-3.2-12.8-10-12.8s-10 5.6-10 12.8v54.4c-12.8 5.2-21.2 17.6-21.2 32.4 0 19.2 15.6 34.8 34.8 34.8s31.6-15.6 31.6-34.8c0-14.8-5.2-27.2-25.2-32.4z" />
<glyph unicode="&#xe620;" d="M512 336c0 44-36 80-80 80h-352c-44 0-80-36-80-80v-228c0-44 36-80 80-80h352c44 0 80 36 80 80v228zM428.4 311.2l-92-87.2 74.8-68c6.4-6 7.2-16 1.2-22.8-3.2-3.6-7.6-5.2-12-5.2-4 0-7.6 1.2-10.8 4l-76.8 70-11.6-11.2c-13.2-12.4-30.4-18.8-47.2-18.8-17.2 0-34 6.4-47.2 18.8l-11.6 10.8-76.8-69.2c-3.2-2.8-6.8-4-10.8-4-4.4 0-8.8 1.6-12 5.2-6 6.4-5.6 16.8 1.2 22.8l75.2 67.6-92.4 87.2c-6.4 6-6.8 16-0.8 22.8 6 6.4 16 6.8 22.8 0.8l127.2-120.4c14-13.6 36.4-13.6 50.4 0l127.2 120.4c6.4 6 16.4 6 22.8-0.8 6-6.4 5.6-16.8-0.8-22.8z" />
<glyph unicode="&#xe621;" d="M307.2 300.8l-19.2 2.8c-6.4 0.8-14.4 6.8-17.2 12.4l-8.4 17.2c-1.6 2.8-3.2 4.4-5.2 4.4s-4-1.6-5.2-4.4l-8.8-17.2c-2.8-6-10.8-11.6-17.2-12.4l-19.2-2.8c-6.4-0.8-8-5.6-3.2-10l13.6-13.6c4.8-4.8 7.6-13.6 6.4-20.4l-3.2-18.8c-0.8-4.8 0.8-7.6 4.4-7.6 1.2 0 2.8 0.4 4.4 1.2l17.2 8.8c2.8 1.6 6.8 2.4 10.4 2.4 4 0 7.6-0.8 10.8-2.4l16.8-9.2c1.6-0.8 3.2-1.2 4.4-1.2 3.2 0 5.2 2.8 4.4 7.6l-3.2 18.8c-1.2 6.4 2 15.6 6.8 20l14 13.2c4.4 5.6 2.8 10-3.6 11.2zM288.4 285.6c-7.6-7.2-12-20.4-10-30.8l1.2-6.8-6 3.2c-4.4 2.4-10.4 3.6-16.4 3.6-4 0-10.4-0.8-16-3.6l-6-3.2 1.2 6.8c2 10.4-2.4 23.6-10 30.8l-4.8 4.8 6.4 1.6c10.4 1.6 21.6 9.6 26.4 18.8l3.2 6 3.2-6.4c4.8-9.6 15.6-17.6 26-19.2l6.8-1.2-5.2-4.4zM406.8 170.8l-0.4-6.8c-0.8-13.2-12-24.4-25.2-24.8l-12.8-0.4c-13.2-0.8-30-10.4-36.8-21.2l-6.8-10.8c-4.8-7.6-12.4-12-21.6-12l116.8-115.6v88.8h88.8l-102 102.8zM190.8 106.4l-7.2 10.8c-7.2 11.2-24 20.8-37.2 21.2l-12.8 0.8c-13.2 0.8-24.4 12-25.2 25.2l-0.4 8.8-104.8-105.2h92.8v-89.2l114.4 115.6c-7.6 1.2-15.2 5.6-19.6 12zM319.6 121.2l4 6c7.2 11.2 24 20.8 36.8 21.2l7.2 0.4c13.2 0.8 24.4 12 25.2 25.2l0.4 7.2c0.8 13.2 10.4 30 21.2 36.8l6 4c11.2 7.2 15.2 22.8 9.2 34.4l-3.2 6.4c-6 11.6-6 30.8 0 42.8l3.2 6.4c6 11.6 2 27.2-9.2 34.4l-6 4c-11.2 7.2-20.8 24-21.2 36.8l-0.4 7.2c-0.8 13.2-12 24.4-25.2 25.2l-7.2 0.4c-13.2 0.8-30 10.4-36.8 21.2l-4 6c-7.2 12.8-22.4 16.8-34.4 10.8l-6.4-3.2c-11.6-6-30.8-6-42.8 0l-6.4 3.2c-12 6-27.2 2-34.4-9.2l-4-6c-7.2-11.2-24-20.8-36.8-21.2l-7.2-0.4c-13.2-0.8-24.4-12-25.2-25.2l-0.4-7.2c-0.8-13.2-10.4-30-21.2-36.8l-6-4c-11.2-7.2-15.2-22.8-9.2-34.4l3.2-6.4c6-11.6 6-30.8 0-42.8l-3.2-6.4c-6-11.6-2-27.2 9.2-34.4l6-4c11.2-7.2 20.8-24 21.2-36.8l0.4-7.2c0.8-13.2 12-24.4 25.2-25.2l7.2-0.4c13.2-0.8 30-10.4 36.8-21.2l4-6c7.2-11.2 22.8-15.2 34.4-9.2l6.4 3.2c11.6 6 30.8 6 42.8 0l6.4-3.2c12-7.6 27.2-3.2 34.4 7.6zM258.8 175.6c-60 0-108.4 48.4-108.4 108.4s48.4 108.4 108.4 108.4 108.4-48.4 108.4-108.4c0-60-48.4-108.4-108.4-108.4z" />
<glyph unicode="&#xe622;" d="M292 142.4c-7.2 5.2-15.2 8.4-34 12.8v55.2c9.6-1.6 14.4-3.2 19.6-8.4 5.6-4.8 8-10 9.6-20l16.8 3.2c-2.8 12.8-5.6 18.8-12.8 25.6-8.4 8-16.4 11.2-33.2 13.2v10.4h-11.2v-10c-14.4-1.6-21.2-3.6-28.4-8.8-11.2-7.2-17.2-19.2-17.2-32.8 0-12.8 5.6-24.4 15.6-30.4 8-4.8 14.4-7.2 30.4-10.8v-60.8c-11.6 0.8-18.4 3.6-24.4 9.6-5.6 5.6-8 11.6-8.8 23.6l-17.2-2.8c2.4-15.6 6-23.6 13.6-31.2 8.4-8 17.6-11.6 36.8-13.6v-18h11.2v17.6c15.6 1.6 22.8 3.2 30.8 8.4 12 7.6 18.4 19.6 18.4 36-0.8 14.8-5.2 24.8-15.6 32zM246.8 156.8c-7.6 1.6-11.2 2.8-15.2 4.4-10 4.8-14.8 11.6-14.8 21.6 0 8 3.6 15.6 9.6 20.4 5.2 4 10 5.6 20.4 6.8v-53.2zM279.6 88c-5.6-4.4-10.8-6-21.6-7.2v58.4c14.4-3.6 18.8-4.8 22.8-8 6.4-4.8 9.6-11.2 9.6-20.4 0-9.6-4-18-10.8-22.8zM440.8 120c-7.6 41.6-86.4 182.4-86.4 182.4l-177.2 35.6c0 0-14-13.6-38-45.2-37.6-49.2-62.8-108-69.2-160.4-5.6-48 0.8-114.4 48.4-139.6 24.8-13.2 53.6-20.4 83.6-20.4h108.4c30 0 58.4 7.2 83.6 20.4 47.6 25.2 54.4 85.6 46.8 127.2zM384.4 10.4c-22.4-12-48-18.4-74-18.4h-108.4c-26 0-51.6 6.4-74 18.4-36 19.2-43.2 74.4-38 119.6 6 48.8 29.6 104 65.2 150.8 12.8 17.2 22.8 28.8 28.8 35.6l157.2-31.6c31.2-56 75.2-141.6 80-168.4 5.6-29.2 3.6-84.4-36.8-106zM354.8 376.4l46.8 33.2c0 0-16 26.8-97.2 48.4-62.4 16.4-126.4 18.8-126.4 18.8l30-69.2 146.8-31.2zM300.4 442c41.2-10.8 64-22.8 76-31.2l-24.8-17.6-132 28.4-16 37.2c23.6-2 60.4-6.8 96.8-16.8zM187.6 354l164-36c1.6-0.4 2.8-0.4 4.4-0.4 9.2 0 17.6 6.4 19.6 15.6 2.4 10.8-4.4 21.6-15.2 24l-164 36c-10.8 2.4-21.6-4.4-24-15.2s4.4-21.6 15.2-24z" />
<glyph unicode="&#xe623;" d="M469.6 98l-161.2 160.8c11.6 8.8 21.2 16 27.2 20.4 6.8-4.4 14.8-6.8 22.8-6.8 11.2 0 21.6 4.4 29.6 12.4 15.6 15.6 16 40.8 1.2 57.2v0c-1.6 2-4.4 4.8-9.2 9.2l-96 96v0.8l-3.6 2.8c-7.2 6.8-16.8 10.8-27.2 10.8-11.2 0-22-4.4-30-12.4s-12.4-18.4-12.4-29.6c0-8.4 2.4-16 6.8-22.8-10-14-36-49.2-63.2-76.8-27.2-27.2-62.8-53.2-76.8-63.2-6.8 4.4-14.8 6.8-22.8 6.8-11.2 0-21.6-4.4-29.6-12.4-14.8-15.2-15.6-40.4-0.8-56.8v0c1.6-2 4.8-4.8 9.6-9.6l98.8-98.8c7.2-7.2 17.2-11.2 28-11.2 11.2 0 22 4.4 30 12.4 14 14 16 36 5.2 52.4 4.4 6 11.2 15.6 20.4 27.2l160.8-160.8c12.8-12.8 29.6-19.2 46-19.2s33.2 6.4 46 19.2c25.6 25.2 25.6 66.4 0.4 92zM237.6 434.8c4 4 10 6.4 15.6 6.4 5.2 0 10-2 13.6-5.6l51.6-51.6c18.4-18.4 53.2-53.2 56-56 7.6-8.8 7.2-21.6-0.8-29.6-4-4-9.6-6.4-15.2-6.4-6 0-11.2 2.4-15.6 6.4l-6 6-99.2 100c-4 4-6.4 9.6-6.4 15.2s2.4 11.2 6.4 15.2zM176.4 101.2c-4-4-10-6.4-15.6-6.4-5.2 0-10 2-13.6 5.6l-49.6 49.2c-19.2 19.2-55.6 55.2-58.4 58-7.6 8.8-7.2 21.6 0.8 29.6 4 4 9.6 6.4 15.2 6.4 6 0 11.2-2.4 15.6-6.4v0 0l105.6-105.6c8.4-8.8 8.4-22 0-30.4zM182 154.4l-88.8 88.8c16 11.6 49.2 36.4 75.6 62.8 26.8 26.8 51.2 59.6 62.8 75.6l88.8-88.8c-16-11.6-49.2-36.4-75.6-62.8s-51.2-59.6-62.8-75.6zM259.2 216c10.4 10.4 22.4 20.8 33.6 30.4l129.6-129.6-64-64-129.6 129.6c9.2 11.2 19.6 22.8 30.4 33.6z" />
<glyph unicode="&#xe624;" d="M358.8 165.6c-27.2-27.2-64-43.6-102.8-44-38.8 0.4-75.2 16.8-102.8 44-59.6-26.8-119.2-39.6-119.2-77.6s0-76.4 0-76.4c0-17.6 18-36.8 35.6-36.8h372.8c17.6 0 35.6 19.2 35.6 36.8 0 0 0 38.4 0 76.4s-59.6 50.8-119.2 77.6zM458 11.6c0-6.8-9.6-16.8-15.6-16.8h-38.4v49.2h-12v-49.2h-272v49.2h-12v-49.2h-38.4c-6.4 0-15.6 10-15.6 16.8v76.4c0 16 32.8 28.8 67.2 42.4 9.2 3.6 18.8 7.6 28.4 11.6 4.8-4 10-8 15.2-11.6l-6.8-69.2 84.8 41.2c4.4-0.4 8.8-0.8 13.2-0.8v0 0c4.4 0 8.8 0.4 13.2 0.8l84.8-41.2-6.8 69.2c5.2 3.6 10.4 7.2 15.2 11.6 9.6-4 19.2-8 28.4-11.6 34.4-13.6 67.2-26.8 67.2-42.4v-76.4zM256 218c12.4 0 24.4 4.8 33.2 14 2.4 2.4 2.4 6 0 8.4s-6 2.4-8.4 0c-6.8-6.8-15.6-10.4-24.8-10.4s-18 3.6-24.8 10.4c-2.4 2.4-6 2.4-8.4 0s-2.4-6 0-8.4c8.8-9.2 20.8-14 33.2-14zM135.6 253.2c26-50 63.2-105.2 120.4-106.8h0.8c57.2 1.2 94.4 56.8 120.4 106.8 21.2 7.6 34 36.8 34 56.4 0 17.6-10 23.2-19.2 27.6 0.8 44.8-10 79.2-32.4 103.2-23.6 24-58 36.4-103.6 36.8-45.6-0.4-80-12.8-102.8-37.2-22.4-23.6-33.2-58.4-32.4-103.2-9.2-4.4-19.2-10-19.2-27.6 0-19.2 12.8-48.4 34-56zM130 319.6c1.6 0.8 3.6 2 5.6 3.2l5.6 3.2-0.4 6c-2 42 7.2 74 26.8 94.8 18.8 20 48.8 30.4 88.4 30.8 39.6-0.4 69.6-10.4 88.4-30.8 19.6-20.8 28.8-52.8 26.8-94.8l-0.4-6 5.6-3.2c2-1.2 4-2 5.6-3.2 8-4 8.4-4.4 8.4-10 0-14.8-10.8-36-22.4-38l-4.8-0.8-2.4-4.4c-35.2-68-67.2-98.8-104.8-99.6-37.6 0.8-69.6 31.6-104.8 99.6l-2.4 4.4-4.8 0.4c-11.6 2-22.4 23.2-22.4 38 0 6 0.4 6 8.4 10.4z" />
<glyph unicode="&#xe625;" d="M206 70l-2 10c-4 20.8-13.6 50-35.6 68-32.4 26.4-51.2 65.6-51.2 107.6 0 76.4 62 138.4 138.4 138.4s138.4-62 138.4-138.4c0-38-15.2-73.2-42.4-99.6l-0.4-0.4c-18.8-15.6-32.8-36-40.8-59.6l-2-5.6-102.4-20.4zM256 373.6c-65.2 0-118.4-53.2-118.4-118.4 0-35.6 16-69.2 44-92 19.2-15.6 32.8-39.6 40.4-70l72 14c9.2 24.8 24.4 46.4 44.8 62.8 23.2 22.4 36 52.8 36 84.8-0.4 65.6-53.6 118.8-118.8 118.8zM213.2 35.2c-4.8 0-8.8 3.2-10 8-1.2 5.6 2.4 10.8 8 11.6l86 16.4c5.6 1.2 10.8-2.4 11.6-8 1.2-5.6-2.4-10.8-8-11.6l-86-16.4c-0.4 0-1.2 0-1.6 0zM213.2 2c-4.8 0-8.8 3.2-10 8-1.2 5.6 2.4 10.8 8 11.6l86 16.4c5.6 1.2 10.8-2.4 11.6-8 1.2-5.6-2.4-10.8-8-11.6l-86-16.4c-0.4 0-1.2 0-1.6 0zM256-29.6c-14.4 0-28.4 5.6-39.2 16.4-4 4-4 10.4 0 14 4 4 10.4 4 14 0 14-14 36.4-14 50.4 0 4 4 10.4 4 14 0s4-10.4 0-14c-10.8-10.8-24.8-16.4-39.2-16.4zM344.8 404.4c-1.6 0-3.6 0.4-4.8 1.2-4.8 2.8-6.4 8.8-3.6 13.6l15.2 26.4c2.8 4.8 8.8 6.4 13.6 3.6s6.4-8.8 3.6-13.6l-15.2-26.4c-2-3.2-5.6-4.8-8.8-4.8zM414 338.4c-3.6 0-6.8 1.6-8.8 5.2-2.8 4.8-1.2 10.8 3.6 13.6l26.4 15.2c4.8 2.8 10.8 1.2 13.6-3.6s1.2-10.8-3.6-13.6l-26.4-15.2c-1.6-1.2-3.2-1.6-4.8-1.6zM71.6 130.4c-3.6 0-6.8 1.6-8.8 5.2-2.8 4.8-1.2 10.8 3.6 13.6l26.4 15.2c4.8 2.8 10.8 1.2 13.6-3.6s1.2-10.8-3.6-13.6l-26.4-15.2c-1.6-1.2-3.2-1.6-4.8-1.6zM471.6 246.4h-30.8c-5.6 0-10 4.4-10 10s4.4 10 10 10h30.8c5.6 0 10-4.4 10-10s-4.4-10-10-10zM71.2 237.6h-30.8c-5.6 0-10 4.4-10 10s4.4 10 10 10h30.8c5.6 0 10-4.4 10-10s-4.4-10-10-10zM444.8 138c-1.6 0-3.6 0.4-4.8 1.2l-26.4 15.2c-4.8 2.8-6.4 8.8-3.6 13.6s8.8 6.4 13.6 3.6l26.4-15.2c4.8-2.8 6.4-8.8 3.6-13.6-2-2.8-5.2-4.8-8.8-4.8zM93.6 330.8c-1.6 0-3.6 0.4-4.8 1.2l-26.4 15.2c-4.8 2.8-6.4 8.8-3.6 13.6s8.8 6.4 13.6 3.6l26.4-15.2c4.8-2.8 6.4-8.8 3.6-13.6-2-3.2-5.2-4.8-8.8-4.8zM160 400c-3.6 0-6.8 1.6-8.8 5.2l-15.2 26.4c-2.8 4.8-1.2 10.8 3.6 13.6s10.8 1.2 13.6-3.6l15.2-26.4c2.8-4.8 1.2-10.8-3.6-13.6-1.6-1.2-3.2-1.6-4.8-1.6zM251.6 426.8c-5.6 0-10 4.4-10 10v30.8c0 5.6 4.4 10 10 10s10-4.4 10-10v-30.8c0-5.6-4.4-10-10-10zM265.6 132.8c0 50.4 3.2 68 26 95.2 0 0-28-6.8-34.4-34.4h-0.4c-6.4 27.6-34.4 34.4-34.4 34.4 22.8-27.2 26-39.2 26-98.8l17.2 3.6z" />
<glyph unicode="&#xe626;" d="M286 145.2c0-17.2-3.6-26.4-16-30.8-12.8-5.6-30.8-5.6-57.2-5.6-1.2 9.2-6.8 22.8-10.4 32 19.6-1.2 38-1.2 43.6 0 5.6 0 6.8 1.2 6.8 5.6v100.8h-74.4v-180h-33.2v178.8h-71.6v-141.2h-32v172h103.2v50.8c-41.2-2.4-83.6-3.6-121.6-3.6 0 9.2-4.4 22-6.8 28.8 95.2 2.4 208.8 9.2 277.6 20.8l12.8-30c-35.6-4.4-81.6-9.2-128.4-12.8v-52.8h108v-132.8zM660.4 146.4h-136.4v-79.2h-34.4v79.2h-135.6v32h135.6v48.4h-107.2v30.8h106.8v43.6h-122.8v32h122.8v49.6h34.4v-49.2h122.8v-32h-122.8v-43.6h108v-30.8h-108v-48.4h136.4v-32.4zM748.8 226.8c-12.8 10.4-36.8 25.2-56.4 34.4l18.4 22.8c18.4-8 43.6-22 56.4-30.8l-18.4-26.4zM854.4 139.6v-28.8c0-12.8 3.6-14.8 24-14.8h70c17.2 0 19.6 5.6 22 36.8 6.8-4.4 18.4-9.2 26.4-10.4-4.4-41.2-12.8-52.8-46-52.8h-73.6c-39.2 0-50.4 8-50.4 40v81.6c-11.6-13.6-24-26.4-36.8-35.6-4.4 5.6-11.6 14.8-18.4 20.8-12.8-33.2-28.8-71.2-43.6-102l-28.8 18.4c13.6 25.2 33.2 67.6 47.2 104.4l22-16c22.8 16 47.2 43.6 60.8 71.2h-57.2v28.8h58.4v34.4h-42.4v28.8h43.6v36.8h30.8v-36.8h58.4v36.8h30.8v-36.8h48.4v-28.4h-48.4v-34.4h57.2v-28.8h-57.2c13.6-25.2 36.8-50.4 60.8-64.4-6.8-5.6-17.2-17.2-22.8-25.2-12.8 8-25.2 19.6-35.6 33.2v-58.4h-100v1.6zM763.6 317.2c-11.6 10.4-34.4 26.4-52.8 36.8l19.6 22c17.2-9.2 41.2-22.8 52.8-33.2l-19.6-25.6zM863.6 254.4c-4.4-11.6-11.6-22.8-17.2-34.4h94c-6.8 10.4-12.8 22.8-18.4 34.4h-58.4zM928.8 195.6h-74.8v-32h74.8v32zM862.4 282.8h58.4v34.4h-58.4v-34.4z" horiz-adv-x="1024" />
<glyph unicode="&#xe627;" d="M465.2 312h-48l11.6 18.4-171.6 120-12.8-18-42 15.6-55.2-136h-96.4c-12 0-22.8-7.6-22.8-19.6v-274c0-12 10.8-22.4 22.8-22.4h414.8c12 0 22.8 10.4 22.8 22.4v274c-0.4 12-11.2 19.6-23.2 19.6zM250.8 411.2l9.2 14.4 1.6 2.8 10-6.8 24.8-17.2 110-78-8.8-14.4h-214.4l67.6 99.2zM211.2 428.8l24.4-9.6-69.6-101.2v0.4l45.2 110.4zM468 18c0-2-2.8-6-4.8-6h-414c-2 0-5.2 4-5.2 6v130h424v-130zM468 232h-424v60c0 2 3.2 4 5.2 4h413.6c2 0 4.8-2 4.8-4v-60z" />
<glyph unicode="&#xe628;" d="M676.4 342c-26.8 0-43.6-9.6-62.4-29.2v25.6l-33.6-6.8v-215.2l36 6.8v118.4c0 36.8 22.4 64 57.2 64 30.4 0 47.2-23.6 47.2-62v-127.2l36 6.8v138.4c-0.4 49.6-31.6 80.4-80.4 80.4zM495.2 116.8l36 6.8v215.2l-36-6.8zM341.6 342c-64.4 0-112-55.6-112-114.4s47.6-114.4 112-114.4 112 55.6 112 114.4c0 59.2-47.6 114.4-112 114.4zM341.6 147.6c-44.4 0-76.4 36.8-76.4 80s32 80 76.4 80c44.4 0 76.4-36.8 76.4-80s-32-80-76.4-80zM1520 303.2v34.8h-47.6v74l-36-6.4v-67.6h-22l-4-34.8h25.6v-129.2c0-31.6 15.2-54 58.8-54 4 0 8 0.4 12.4 1.2l6.8 32c-3.2-0.4-8-1.2-14.4-1.2-20 0-27.6 9.2-27.6 24.8v126.4h48zM1155.6 342c-64.4 0-112-55.6-112-114.4s47.6-114.4 112-114.4c64.4 0 112 55.6 112 114.4 0 59.2-47.6 114.4-112 114.4zM1155.6 147.6c-44.4 0-76.4 36.8-76.4 80s32 80 76.4 80 76.4-36.8 76.4-80-32-80-76.4-80zM1337.6 304.8v33.6l-33.6-6.4v-215.2l33.6 6.8v84.8c0 60.8 22 90.4 58.4 96l5.6 34.4c-21.2 0-42-9.6-64-34zM904 334.8c-29.6 0-56.4-12.4-75.6-32.4v39.2l-36-6.8v-298.8l36 6.8v106.8c19.2-20 46-32.4 75.6-32.4 58.8 0 106.4 48.8 106.4 108.8s-47.6 108.8-106.4 108.8zM904 150c-41.2 0-74.4 34-74.4 76s33.2 76 74.4 76 74.4-34 74.4-76c-0.4-42-33.6-76-74.4-76zM188.8 271.2l25.2 30.8-15.6 13.2c0 0 0 0 0 0v0 0c-46.8 40.4-116.8 34-156.4-14s-33.6-119.6 13.6-160c46.8-40.4 117.2-34.4 156.4 13.6l-30 26c-25.6-30.8-70.8-34.8-101.2-8.8s-34.4 72.4-8.8 103.2c25.6 30.8 70.8 34.8 101.2 8.8v0l15.6-12.8z" horiz-adv-x="1536" />
<glyph unicode="&#xe629;" d="M256 464c132.4 0 240-107.6 240-240s-107.6-240-240-240-240 107.6-240 240 107.6 240 240 240zM256 480c-141.2 0-256-114.8-256-256s114.8-256 256-256 256 114.8 256 256-114.8 256-256 256v0zM365.2 324h-242.8l97.6-126v76.4c0 0 116 0 116 0v-101.2c0 0-5.2-1.2-6-1.2h-126.8l-74.4 96h-57.6l103.2-140h192.8c10 0 21.2 2.8 29.2 8 15.6 9.6 27.6 26.4 27.6 46v88c0 30.4-28.4 54-58.8 54z" />
<glyph unicode="&#xe62a;" d="M360.8 284.4c-3.2 34.4-32.8 45.6-70.4 48.8v47.6h-29.2v-46.4c-7.6 0-15.6 0-23.2-0.4v46.8h-29.2v-47.6c-6.4 0-12.4-0.4-18.4-0.4v0h-40v-30.8c0 0 21.6 0.4 21.2 0 11.6 0 15.6-6.8 16.8-12.8v-54c0.8 0 2 0 3.2 0-0.8 0-2 0-3.2 0v-76c-0.4-3.6-2.8-9.6-10.8-9.6 0.4-0.4-21.2 0-21.2 0l-6-34.4h38c7.2 0 14 0 20.8 0v-48h29.2v47.6c8 0 15.6-0.4 23.2 0v-47.2h29.2v48c48.8 2.8 83.2 15.2 87.6 60.8 3.6 36.8-14 53.2-41.6 59.6 16 8.4 26.4 23.6 24 48.4v0 0zM320 181.6c0-36-62-32-81.6-32v63.6c20 0 81.6 6 81.6-31.6v0 0zM306.8 271.6c0-32.8-51.6-28.8-68-28.8v57.6c16.4 0 68 5.2 68-28.8v0 0zM256 464c132.4 0 240-107.6 240-240s-107.6-240-240-240-240 107.6-240 240 107.6 240 240 240zM256 480c-141.2 0-256-114.8-256-256s114.8-256 256-256 256 114.8 256 256-114.8 256-256 256v0z" />
<glyph unicode="&#xe62b;" d="M256 464c132.4 0 240-107.6 240-240s-107.6-240-240-240-240 107.6-240 240 107.6 240 240 240zM256 480c-141.2 0-256-114.8-256-256s114.8-256 256-256 256 114.8 256 256-114.8 256-256 256v0zM368.4 216c-1.6 24-12 48-28.8 65.6l-51.6-52c2.8-4 4.8-9.6 5.2-13.6h75.2zM159.2 204c0.8-24 10.4-48 26.4-65.6l51.2 50.4c-3.6 4.4-6 11.2-7.2 15.2h-70.4zM333.2 287.6c-17.6 15.6-37.2 25.2-65.2 25.6v-70.8c4-0.8 9.6-3.2 14-6.4l51.2 51.6zM341.6 137.6c16.4 17.6 26.4 42.4 27.2 66.4h-75.6c-0.8-4-2.8-9.2-5.6-13.2l54-53.2zM268 104c28 0.8 50 11.2 68 28.4l-53.2 53.6c-4-3.6-10.8-6-14.8-6.8v-75.2zM192 133.2c17.6-16.8 40-28 68-29.2v74.4c-4 0.4-12 2.8-16.4 6l-51.6-51.2zM260 313.2v38.8l-96 99.2v-130l82-83.6c4.4 2.8 10 4.8 14 5.6v70zM164 308.8v-92.8h65.2c0.8 8 5.2 11.2 8.8 15.6l-74 77.2z" />
<glyph unicode="&#xe62c;" d="M253.6 464c132.4 0 240-107.6 240-240s-107.6-240-240-240-240 107.6-240 240 108 240 240 240zM253.6 480c-141.2 0-256-114.8-256-256s114.8-256 256-256 256 114.8 256 256-114.4 256-256 256v0zM254.4 110.4c16.4-30 54.8-40.8 85.2-24.8s42 53.6 25.6 83.2c-11.6 20.8-33.6 32.8-56.4 32.4v0.4c-6.8-0.8-13.2 1.2-18.4 5.6-10 7.2-12.4 20.8-6 31.6 5.2 8.4 14.8 12.4 24 11.2 20.8 0.4 41.2 10.4 52.8 29.2 18 28.8 8.8 66.8-20.4 84.4-29.6 17.6-68.4 8.8-86.4-20-12.8-20.4-12-44.8-0.4-64v0c0.8-1.6 1.6-3.2 2.8-4.4v0c0 0 0 0 0-0.4 1.6-3.2 2.4-6.8 2-10.4-0.4-13.2-11.6-23.6-25.2-23.2-10 0.4-18.4 6.4-22 14.8 0 0 0 0 0 0s0 0.4-0.4 0.4c-10.8 17.2-30 29.2-52 30-34.8 0.8-63.6-25.6-64.4-59.6-1.2-34.8 26.4-62.8 61.2-64 24.4-0.8 45.6 12.4 56.8 31.6h0.4c4 8.4 12.8 14.4 23.2 14 1.6 0 2.8-0.4 4.4-0.4 7.2-1.2 13.6-5.6 17.2-12 4.8-8.4 3.6-18.8-2-26-11.2-18-12-40-1.6-59.6z" />
<glyph unicode="&#xe62d;" d="M256 464c132.4 0 240-107.6 240-240s-107.6-240-240-240-240 107.6-240 240 107.6 240 240 240zM256 480c-141.6 0-256-114.8-256-256s114.8-256 256-256 256 114.8 256 256-114.8 256-256 256v0zM121.2 272c3.2 0 6.4-1.2 8.8-2.8l85.2-57.2h25.2c8.4 0 14.8-6.8 14.8-14.8s-6.8-14.8-14.8-14.8h-30c-2.4 0-4.8 0.8-6.8 1.6l-87.2 58h-25.2c-8.4 0-14.8 6.8-14.8 14.8 0 8.4 6.8 14.8 14.8 14.8h30zM121.2 212c8.4 0 14.8-6.8 14.8-14.8s-6.8-14.8-14.8-14.8h-30c-8.4 0-14.8 6.8-14.8 14.8s6.8 14.8 14.8 14.8h30zM420.4 272c8.4 0 14.8-6.8 14.8-14.8v-30c0-8.4-6.8-14.8-14.8-14.8-8.4 0-14.8 6.8-14.8 14.8v14.8h-75.2c-8.4 0-14.8 6.8-14.8 14.8 0 8.4 6.8 14.8 14.8 14.8h90zM240.8 272c3.2 0 6.4-1.2 8.8-2.8l85.2-57.2h41.2c8.4 0 14.8-6.8 14.8-14.8s-6.8-14.8-14.8-14.8h-45.6c-2.4 0-4.8 0.8-6.8 1.6l-87.6 58h-25.2c-8.4 0-14.8 6.8-14.8 14.8 0 8.4 6.8 14.8 14.8 14.8h30z" />
<glyph unicode="&#xe62e;" d="M256 464c132.4 0 240-107.6 240-240s-107.6-240-240-240-240 107.6-240 240 107.6 240 240 240zM256 480c-141.2 0-256-114.8-256-256s114.8-256 256-256 256 114.8 256 256-114.8 256-256 256v0zM230 402c4 0.8 5.6 0.4 7.6 0 2.4-0.8 3.2-5.6 0-5.6-8.4-0.4-14.8-10.8-16.8-15.2-4.8-10.4 2.8-20.8 15.2-30 9.2-8.4 34.4 39.2 65.6 41.2 10.8 0.8 18.4-2 18.8-9.2 2-25.6-40.4-32-67.6-43.2-28-11.2-68.4-131.2-39.2-165.2 31.6-36.8 106 14.4 118-60 6.4-39.6-24-70.8-62-69.2-20 0.8-26.4 6.4-28 16.8-1.2 5.6 4.4 12.8 11.2 15.2 16 5.2 31.2-10.8 54.4 1.2 11.6 6 11.6 28 9.2 34.4-9.2 26-66 1.2-97.6 20.8-79.6 49.2-17.6 168 13.2 206-15.6 3.2-26 12.4-28 16.8-13.2 27.6 18.4 44 26 45.2z" />
<glyph unicode="&#xe62f;" d="M256.4 464c132.4 0 240-107.6 240-240s-107.6-240-240-240-240 107.6-240 240 107.6 240 240 240zM256.4 480c-141.2 0-256-114.8-256-256s114.8-256 256-256 256 114.8 256 256-114.4 256-256 256v0zM362.8 340h-43.6l-70-208.8-70.8 208.8h-44.4l91.6-260h47.6l90 259.6zM290.8 289.6c0-12.592-10.208-22.8-22.8-22.8s-22.8 10.208-22.8 22.8c0 12.592 10.208 22.8 22.8 22.8s22.8-10.208 22.8-22.8zM378 220.4c0-12.592-10.208-22.8-22.8-22.8s-22.8 10.208-22.8 22.8c0 12.592 10.208 22.8 22.8 22.8s22.8-10.208 22.8-22.8z" />
<glyph unicode="&#xe630;" d="M255.6 464c132.4 0 240-107.6 240-240s-107.6-240-240-240-240 107.6-240 240 108 240 240 240zM255.6 480c-141.2 0-256-114.8-256-256s114.8-256 256-256 256 114.8 256 256-114.4 256-256 256v0zM320.8 247.2c13.2 1.6 34.8 20.8 35.2 47.2 0.4 33.6-19.2 49.6-45.2 54.8 13.6-12.8 22.4-32.8 22.4-54.8 0.4-22.4-2.8-34-12.4-47.2zM332.8 231.2c13.6-12.8 22.8-32.8 22.4-54.8-0.4-31.6-16.8-52.4-26-65.6 13.6-0.8 47.6 23.6 47.6 57.6 0 33.2-18.4 57.6-44 62.8zM143.2 356h0.8v-13.2c16-5.6 28-27.6 28-46.8v-143.6c0-19.2-12-41.2-28-46.8v-9.6h52v260h-52.8zM288.4 240.8c17.2 11.6 28.4 29.6 28.4 52 0 35.6-28.8 63.2-64.4 63.2-2 0-4 0-5.6 0h-38.8v-260h42.4c0 0 11.2-1.2 17.2-1.2 39.6 0 71.2 37.2 71.2 76.4 0 32.4-21.2 60.4-50.4 69.6zM228 240v82c0 9.2 8.8 16.8 18 16.8 31.2 0 50-20 50-46.8v-4.8c0-24-19.2-47.2-43.2-47.2h-21.2c-0.4 0-3.6 0-3.6 0zM316 166.4c0-24-20.4-46.4-44.4-46.4h-14.8c-14 0-28.8 13.2-28.8 27.2l-2 80.8h40.4c27.2 0 49.6-22.4 49.6-49.2v-12.4z" />
<glyph unicode="&#xe631;" d="M256 464c132.4 0 240-107.6 240-240s-107.6-240-240-240-240 107.6-240 240 107.6 240 240 240zM256 480c-141.2 0-256-114.8-256-256s114.8-256 256-256 256 114.8 256 256-114.8 256-256 256v0zM295.2 355.6h-157.6v-60.8h34.8v-136.4h-34.8v-61.6h154.4c36.4 0 106 25.2 106 132.8 0 96.8-82.4 126-102.8 126v0zM279.2 158h-33.6v136.4h33.6c10.8 0 34-18 34-68 0-42.8-22-68.4-34-68.4v0z" />
<glyph unicode="&#xe632;" d="M255.2 464c132.4 0 240-107.6 240-240s-107.6-240-240-240-240 107.6-240 240 107.6 240 240 240zM255.2 480c-141.2 0-256-114.8-256-256s114.8-256 256-256 256 114.8 256 256-114.8 256-256 256v0zM239.6 150.4l18 65.6 40.8 14.8 6.4 34.8-37.6-13.6 28.8 106h-80.8l-37.6-138-32.4-11.6-6.4-34.8 29.2 10.4-23.6-86h221.2l11.2 40.8 2.8 11.6h-140z" />
<glyph unicode="&#xe633;" d="M255.6 464c132.4 0 240-107.6 240-240s-107.6-240-240-240-240 107.6-240 240 107.6 240 240 240zM255.6 480c-141.2 0-256-114.8-256-256s114.8-256 256-256 256 114.8 256 256-114.8 256-256 256v0zM238.8 77.6c2 12.4 2.8 24 2.8 40v35.2h-52.4c-16 0-25.2-0.8-37.2-2.8v26.8c12-2 21.2-2.8 37.2-2.8h52.8v17.2l-14 21.2h-38.8c-16 0-25.2-0.8-37.2-2.8v26.8c12-2 21.2-2.8 37.2-2.8h25.2l-55.6 85.2c-10.4 16-16 24.4-21.6 31.2h38.4c2.8-8.4 6-15.2 17.6-32.8l62.4-101.2 62.4 101.2c10.4 16.8 14.8 24.8 17.2 32.8h38.8c-5.2-6-12.4-16.4-22.4-31.2l-54.8-85.2h25.2c16 0 25.6 0.8 37.6 2.8v-26.8c-12 2-22 2.8-37.6 2.8h-38.4l-14.4-21.6v-16.8h52.8c15.6 0 25.2 0.8 37.2 2.8v-26.8c-12 2-22 2.8-37.2 2.8h-52.8v-35.2c0-18 0.8-27.2 2.8-40h-33.2z" />
<glyph unicode="&#xe634;" d="M247.2 93.2c-33.6 3.2-49.6 9.6-64.4 23.6-13.2 13.2-19.2 27.2-23.6 54.4l30 4.8c2-21.2 6-31.6 15.6-41.6 10-10.4 22-15.6 42.4-17.2v106.4c-28 6-39.2 10-52.8 18.8-17.6 10.8-27.6 30.8-27.6 53.2 0 24.4 10.8 44.8 30.4 57.6 13.2 8.8 25.2 12.4 50 15.2v17.6h19.6v-18c29.2-3.2 43.6-9.2 58-23.2 12.8-12.4 17.6-22.8 22.4-44.8l-29.2-5.6c-2.8 17.6-7.2 26.4-17.2 35.2-9.2 8.8-17.6 12-34 14.4v-96.8c33.2-7.6 47.6-13.2 60-22 18-13.2 26-30.4 26-54.8 0-28.4-10.8-49.2-32-62.8-14-9.2-26.8-12.4-54-14.8v-31.2h-19.6v31.6zM247.2 344.4c-17.6-2-26.4-5.2-35.6-12-10.4-8-17.2-21.6-17.2-35.6 0-17.6 8.4-29.6 25.6-38 7.2-3.2 13.6-5.2 26.8-8v93.6zM266.8 116.8c18.8 2 28 5.2 38 12.8 12 8.8 18.8 23.2 18.8 40.8 0 16-6 27.6-17.2 36-7.2 5.2-14.8 7.6-40 13.6v-103.2zM255.6 464c132.4 0 240-107.6 240-240s-107.6-240-240-240-240 107.6-240 240 107.6 240 240 240zM255.6 480c-141.2 0-256-114.8-256-256s114.8-256 256-256 256 114.8 256 256-114.8 256-256 256v0z" />
</font>
</defs>
</svg>
